<?xml version="1.0" standalone="no"?>
<!DOCTYPE svg PUBLIC "-//W3C//DTD SVG 20010904//EN"
 "http://www.w3.org/TR/2001/REC-SVG-20010904/DTD/svg10.dtd">
<svg version="1.0" xmlns="http://www.w3.org/2000/svg"
 width="1280.000000pt" height="576.000000pt" viewBox="0 0 1280.000000 576.000000"
 preserveAspectRatio="xMidYMid meet">

<g transform="translate(0.000000,576.000000) scale(0.100000,-0.100000)"
fill="#000000" stroke="none">
<path d="M8677 5746 c-21 -8 -48 -22 -59 -33 -27 -24 -58 -91 -58 -127 0 -51
38 -114 84 -141 l43 -25 377 0 c360 0 379 1 417 20 65 34 99 109 84 187 -9 48
-68 107 -120 122 -62 17 -719 14 -768 -3z"/>
<path d="M8650 5199 c-93 -54 -112 -167 -43 -250 49 -58 57 -59 460 -59 345 0
369 1 407 20 89 43 119 154 64 237 -48 73 -48 73 -475 73 -363 0 -379 -1 -413
-21z"/>
<path d="M0 3177 c0 -663 4 -1003 11 -1043 26 -141 94 -260 210 -368 80 -74
195 -136 287 -155 36 -8 372 -11 1057 -11 l1005 0 0 155 0 155 -632 0 c-352 0
-659 4 -691 10 -32 5 -78 19 -103 32 -57 28 -129 104 -157 166 l-22 47 -3 998
-2 997 -480 0 -480 0 0 -983z"/>
<path d="M3250 3205 l0 -955 480 0 480 0 0 955 0 955 -480 0 -480 0 0 -955z"/>
<path d="M4850 2880 l0 -1280 480 0 480 0 0 1111 0 1110 418 -3 c393 -4 422
-5 497 -26 124 -35 239 -96 310 -167 85 -84 110 -138 110 -240 -1 -105 -25
-154 -130 -264 -104 -109 -189 -164 -382 -245 -87 -37 -174 -78 -195 -91 -70
-46 -76 -147 -16 -263 19 -37 168 -259 332 -494 l297 -428 480 0 479 0 -78
107 c-169 234 -508 731 -538 791 -53 105 -53 174 -1 230 12 13 73 49 135 79
306 149 472 358 473 595 1 338 -308 612 -826 729 l-100 23 -1112 3 -1113 4 0
-1281z"/>
<path d="M10718 4144 c-171 -41 -341 -181 -427 -351 -48 -96 -64 -179 -58
-303 8 -181 64 -305 197 -441 140 -142 228 -188 758 -390 417 -160 513 -208
594 -297 20 -22 41 -56 48 -77 34 -104 -42 -258 -165 -330 -69 -41 -136 -45
-802 -45 l-633 0 0 -155 0 -155 1005 0 c685 0 1021 3 1057 11 29 6 91 29 138
51 119 57 239 177 298 298 76 153 89 310 40 470 -37 118 -76 181 -180 288
-128 131 -238 187 -773 392 -351 135 -409 161 -503 227 -88 62 -122 118 -122
198 0 117 76 225 200 284 l55 26 678 3 677 3 0 154 0 155 -1012 -1 c-827 -1
-1023 -3 -1070 -15z"/>
<path d="M8590 2555 l0 -955 480 0 480 0 0 955 0 955 -480 0 -480 0 0 -955z"/>
<path d="M3325 850 c-88 -44 -118 -154 -63 -237 48 -73 48 -73 473 -73 363 0
379 1 414 21 94 53 114 167 44 250 -49 58 -57 59 -460 59 -348 0 -370 -1 -408
-20z"/>
<path d="M3315 317 c-46 -25 -85 -92 -85 -144 0 -74 54 -142 128 -163 22 -6
174 -10 382 -10 361 1 395 4 442 47 27 24 58 91 58 127 0 51 -38 114 -84 141
l-43 25 -379 0 c-374 0 -380 -1 -419 -23z"/>
</g>
</svg>
