<?xml version="1.0" standalone="no"?>
<!DOCTYPE svg PUBLIC "-//W3C//DTD SVG 20010904//EN"
 "http://www.w3.org/TR/2001/REC-SVG-20010904/DTD/svg10.dtd">
<svg version="1.0" xmlns="http://www.w3.org/2000/svg"
 width="1488.000000pt" height="2340.000000pt" viewBox="0 0 1488.000000 2340.000000"
 preserveAspectRatio="xMidYMid meet">

<g transform="translate(0.000000,2340.000000) scale(0.100000,-0.100000)"
fill="#000000" stroke="none">
<path d="M7255 23389 c-448 -62 -783 -308 -994 -729 -33 -65 -69 -149 -82
-187 l-22 -70 -79 -17 c-120 -26 -221 -61 -346 -121 -289 -139 -510 -333 -651
-571 l-41 -71 -138 -7 c-1017 -50 -1927 -478 -2702 -1272 -597 -612 -1058
-1365 -1434 -2344 -1005 -2611 -1022 -6472 -46 -9925 845 -2988 2315 -5364
4135 -6685 651 -472 1378 -822 2094 -1009 96 -25 158 -46 164 -56 21 -38 135
-183 182 -230 61 -63 110 -95 146 -95 59 0 188 122 292 277 35 52 49 65 82 73
371 99 523 148 815 263 226 89 598 271 815 398 787 460 1527 1111 2184 1924
691 854 1287 1865 1788 3028 785 1826 1284 3961 1423 6082 24 363 31 553 36
995 29 2155 -307 4021 -992 5510 -489 1061 -1158 1890 -1949 2417 -602 401
-1246 614 -1957 649 l-138 7 -45 76 c-188 320 -577 593 -971 682 l-101 22 -23
70 c-32 101 -129 289 -201 390 -192 270 -449 440 -767 507 -113 24 -368 34
-477 19z m400 -244 c169 -27 339 -97 462 -189 143 -108 281 -288 344 -450 l28
-71 -32 -7 c-18 -3 -63 -11 -102 -18 -167 -27 -372 -116 -527 -227 -101 -73
-251 -228 -313 -325 -82 -126 -73 -116 -87 -95 -7 11 -35 53 -63 95 -62 97
-212 252 -313 325 -181 130 -392 213 -614 242 l-47 6 15 42 c65 186 225 394
387 506 64 44 200 108 277 131 166 49 408 64 585 35z m-1185 -959 c289 -44
557 -190 720 -393 81 -100 123 -179 165 -308 36 -111 56 -145 85 -145 29 0 49
34 85 145 42 129 84 208 165 309 217 270 629 437 981 398 339 -37 635 -216
820 -496 32 -49 59 -92 59 -96 0 -3 -30 -12 -67 -20 -38 -7 -133 -30 -213 -52
-491 -134 -774 -319 -1082 -707 -283 -355 -463 -783 -523 -1244 -20 -155 -20
-438 1 -574 29 -195 89 -364 186 -520 65 -105 222 -268 330 -341 379 -258 960
-366 1623 -301 142 14 192 37 277 127 110 117 192 308 239 554 27 143 37 484
20 639 -54 468 -242 792 -475 816 -67 7 -165 -18 -235 -60 -259 -156 -364
-578 -252 -1019 49 -196 121 -342 216 -439 139 -143 256 -111 355 97 134 285
107 698 -51 779 -61 32 -137 7 -160 -52 -7 -19 -1 -39 31 -104 51 -100 73
-194 67 -279 -10 -159 -89 -204 -183 -105 -154 160 -147 655 12 844 30 37 84
66 136 76 138 26 284 -191 344 -510 23 -124 26 -420 5 -535 -69 -380 -269
-591 -496 -525 -126 36 -213 101 -312 233 -112 148 -198 357 -239 577 -26 138
-26 442 -1 568 76 379 278 669 543 780 212 89 605 72 1002 -45 556 -163 1101
-549 1537 -1087 113 -140 111 -108 19 -291 -184 -372 -592 -836 -1060 -1206
-232 -185 -573 -417 -792 -539 l-98 -55 -99 39 c-451 175 -837 244 -1240 220
-358 -21 -762 -86 -1245 -200 -102 -24 -158 -32 -230 -32 -72 0 -128 8 -230
32 -648 153 -1188 223 -1551 200 -295 -18 -598 -90 -933 -220 l-100 -39 -75
42 c-175 95 -486 301 -705 466 -422 319 -802 709 -1039 1067 -78 118 -166 282
-193 359 l-14 39 57 71 c587 733 1282 1150 2047 1227 146 14 359 7 441 -16
146 -41 288 -137 392 -265 102 -127 200 -349 240 -547 28 -136 25 -441 -5
-590 -43 -217 -125 -409 -235 -555 -99 -132 -186 -197 -312 -233 -300 -88
-536 306 -511 850 16 353 131 639 285 707 49 22 91 19 152 -12 105 -54 174
-224 185 -460 9 -191 -32 -354 -110 -435 -94 -99 -173 -54 -183 105 -6 85 16
179 67 279 44 89 44 111 -6 150 -51 40 -130 22 -179 -43 -172 -226 -43 -877
181 -913 143 -23 314 202 394 522 94 371 38 738 -141 929 -100 106 -231 165
-345 153 -166 -17 -313 -188 -403 -469 -61 -193 -75 -303 -76 -593 0 -292 15
-410 76 -601 67 -211 185 -383 302 -438 92 -43 470 -67 747 -47 356 26 623 92
863 212 138 69 238 139 343 244 174 174 277 368 335 633 30 138 38 477 15 652
-63 482 -245 906 -551 1287 -88 110 -257 278 -351 349 -213 160 -498 280 -858
361 -67 15 -123 28 -125 29 -8 7 92 154 151 222 89 103 205 193 333 257 218
109 428 145 655 111z m-1158 -831 c334 -39 653 -154 863 -312 191 -143 404
-384 531 -600 229 -388 348 -935 289 -1326 -67 -446 -379 -785 -876 -950 -196
-66 -469 -111 -497 -83 -18 17 3 60 57 120 165 181 294 510 332 846 16 140 6
394 -21 525 -103 512 -416 882 -831 985 -156 39 -429 37 -675 -5 -526 -90
-1030 -341 -1484 -741 -706 -621 -1285 -1653 -1651 -2944 -464 -1635 -569
-3702 -293 -5810 395 -3030 1522 -5849 3046 -7628 742 -865 1584 -1499 2451
-1843 l157 -62 0 -86 c1 -217 60 -472 167 -719 9 -21 -23 -14 -200 44 -505
165 -1041 423 -1492 718 -1201 787 -2263 2051 -3111 3701 -571 1113 -1037
2402 -1354 3744 -438 1863 -597 3859 -449 5651 154 1865 557 3326 1245 4508
263 452 531 799 875 1137 438 429 882 719 1399 915 171 65 490 156 630 179
288 49 655 64 892 36z m4933 -5 c352 -41 741 -152 1085 -310 420 -192 779
-444 1154 -810 190 -186 342 -356 482 -543 716 -950 1221 -2236 1478 -3762
282 -1673 292 -3486 30 -5325 -382 -2684 -1325 -5194 -2631 -6998 -729 -1007
-1536 -1769 -2428 -2292 -203 -118 -601 -314 -811 -398 -263 -105 -604 -218
-604 -200 0 2 16 42 36 88 77 183 134 454 134 639 l0 88 158 62 c526 209 1059
535 1558 954 1061 888 1988 2228 2704 3907 1126 2640 1607 5855 1289 8620
-266 2313 -1104 4136 -2289 4976 -310 220 -655 383 -980 463 -341 84 -678 103
-890 51 -159 -39 -345 -146 -468 -269 -177 -177 -305 -431 -362 -717 -27 -131
-37 -386 -21 -524 39 -337 167 -665 333 -847 21 -24 46 -59 55 -78 23 -48 10
-56 -77 -48 -195 16 -452 88 -632 178 -508 253 -732 681 -667 1273 46 418 191
799 422 1109 98 130 279 313 402 406 204 153 522 270 850 312 125 16 538 13
690 -5z m-7706 -2547 c280 -565 1030 -1284 1838 -1762 l92 -55 -97 -64 c-275
-182 -541 -437 -759 -727 -415 -552 -739 -1338 -883 -2139 -11 -60 -22 -111
-23 -113 -7 -6 -323 38 -447 63 -335 67 -638 166 -959 312 l-143 65 6 101
c105 1594 488 3019 1087 4041 101 173 226 365 236 365 5 0 28 -39 52 -87z
m9935 -25 c288 -444 526 -945 718 -1508 277 -817 456 -1769 524 -2785 l6 -101
-112 -53 c-309 -145 -652 -258 -990 -325 -116 -24 -440 -70 -446 -64 -1 2 -14
64 -28 139 -14 74 -46 216 -70 315 -276 1117 -823 2000 -1555 2514 l-107 76
90 54 c837 506 1569 1210 1842 1770 21 44 42 80 47 80 4 0 41 -51 81 -112z
m-4747 -4583 c133 -638 450 -2156 705 -3373 297 -1424 465 -2207 470 -2195 4
10 274 1172 599 2583 624 2708 610 2640 580 2748 -30 107 -154 172 -303 159
-40 -4 -83 -10 -95 -13 l-23 -6 0 251 0 251 750 0 750 0 0 -253 0 -254 -78 5
c-152 9 -258 -51 -295 -164 -9 -27 -451 -2015 -982 -4419 -531 -2403 -968
-4378 -971 -4387 -5 -16 -20 -18 -135 -18 -95 0 -131 3 -134 13 -3 6 -275
1403 -605 3102 -330 1700 -604 3098 -608 3108 -4 11 -71 -394 -165 -1015 -87
-568 -300 -1960 -473 -3093 -173 -1133 -317 -2072 -320 -2087 l-6 -28 -148 0
-148 0 -11 48 c-5 26 -467 2009 -1025 4407 -644 2765 -1023 4376 -1037 4403
-23 44 -69 86 -125 115 -28 14 -60 24 -146 42 l-28 5 0 235 0 235 840 0 840 0
0 -240 0 -239 -94 6 c-89 6 -98 4 -149 -21 -88 -43 -137 -142 -137 -281 0 -45
151 -708 592 -2597 325 -1396 593 -2536 595 -2535 2 3 1012 6499 1030 6625 l6
43 121 -3 120 -3 243 -1160z m-6466 -24 c132 -61 360 -149 509 -195 248 -76
627 -155 828 -172 97 -8 90 14 62 -204 -169 -1360 -30 -2961 386 -4428 258
-911 696 -1946 1190 -2808 l23 -42 -72 -57 c-230 -185 -547 -347 -896 -459
-156 -51 -401 -110 -411 -99 -14 14 -215 442 -306 649 -957 2192 -1478 4828
-1440 7299 5 361 13 565 21 565 1 0 49 -22 106 -49z m12475 -48 c13 -156 10
-1239 -4 -1503 -35 -638 -83 -1141 -163 -1709 -254 -1798 -748 -3487 -1458
-4981 -57 -118 -106 -219 -111 -223 -10 -11 -254 48 -411 99 -347 111 -667
275 -896 459 l-73 58 19 31 c49 81 205 374 310 581 711 1403 1124 2793 1281
4300 84 812 76 1768 -20 2445 -18 123 -21 116 69 124 212 17 588 96 846 177
151 48 395 142 510 198 44 22 83 40 87 40 3 1 10 -43 14 -96z m-9298 -8106
c295 -495 626 -970 961 -1377 356 -433 793 -864 1113 -1098 43 -32 77 -64 78
-72 0 -27 -118 -249 -193 -363 -166 -253 -454 -563 -692 -747 l-55 -43 -53 35
c-88 59 -326 240 -437 333 -698 583 -1332 1356 -1889 2303 -151 259 -314 563
-305 571 5 4 61 20 124 35 135 32 353 102 495 158 241 95 564 279 695 397 25
22 47 40 50 40 3 1 51 -77 108 -172z m6175 121 c264 -220 732 -436 1178 -544
63 -15 118 -31 122 -35 14 -11 -216 -431 -409 -746 -595 -974 -1286 -1765
-2029 -2321 -77 -58 -164 -121 -192 -140 l-53 -35 -37 29 c-177 134 -438 397
-600 604 -113 145 -303 471 -303 520 1 8 35 40 78 72 665 487 1446 1420 2074
2475 57 95 104 173 106 173 2 0 31 -23 65 -52z m-3525 -2978 c138 -76 324
-160 353 -160 57 0 407 181 606 315 l107 71 57 -115 c69 -138 184 -317 299
-461 103 -129 352 -384 483 -493 53 -45 97 -85 97 -89 0 -15 -260 -161 -475
-268 -233 -115 -448 -205 -465 -195 -5 3 -10 15 -10 25 0 11 -9 42 -19 70 -56
146 -214 264 -428 320 -392 101 -831 -49 -934 -320 -10 -28 -19 -59 -19 -70 0
-10 -5 -22 -10 -25 -29 -18 -571 236 -812 380 -71 42 -128 80 -128 83 0 4 44
44 98 89 130 109 379 364 482 493 114 144 230 322 298 460 l57 115 125 -81
c69 -45 176 -110 238 -144z m567 -1200 c138 -44 224 -103 256 -175 28 -65 42
-209 36 -367 -9 -233 -58 -419 -172 -654 -68 -141 -199 -344 -264 -412 -77
-80 -120 -53 -263 163 -142 213 -250 466 -293 685 -36 185 -29 485 14 585 37
85 164 159 332 195 77 16 275 5 354 -20z"/>
</g>
</svg>
